<?xml version="1.0" encoding="UTF-8"?>
<svg width="30px" height="30px" viewBox="0 0 30 30" version="1.1" xmlns="http://www.w3.org/2000/svg" xmlns:xlink="http://www.w3.org/1999/xlink">
    <title>ic_edit</title>
    <g id="效果图" stroke="none" stroke-width="1" fill="none" fill-rule="evenodd">
        <g id="画板" transform="translate(-124.000000, -56.000000)" fill="#4C545B" fill-rule="nonzero">
            <path d="M132.17175,76.58625 L136.79725,75.775 C136.85225,75.764 136.9045,75.73925 136.943,75.698 L148.60025,64.04075 C148.7075,63.9335 148.7075,63.76025 148.60025,63.653 L144.02975,59.07975 C143.9775,59.0275 143.90875,59 143.8345,59 C143.76025,59 143.6915,59.0275 143.63925,59.07975 L131.982,70.737 C131.94075,70.77825 131.916,70.82775 131.905,70.88275 L131.09375,75.50825 C131.0415,75.8135 131.135,76.1105 131.35225,76.32775 C131.53375,76.50375 131.762,76.6 132.00675,76.6 C132.06175,76.6 132.11675,76.5945 132.17175,76.58625 Z M143.8345,61.8325 L145.85025,63.84825 L135.876,73.81975 L133.43125,74.2515 L133.86025,71.804 L143.8345,61.8325 Z M149.12,78.91 L128.88,78.91 C128.39325,78.91 128,79.30325 128,79.79 L128,80.78 C128,80.901 128.099,81 128.22,81 L149.78,81 C149.901,81 150,80.901 150,80.78 L150,79.79 C150,79.30325 149.60675,78.91 149.12,78.91 Z" id="ic_edit"></path>
        </g>
    </g>
</svg>