<?xml version="1.0" encoding="UTF-8"?>
<svg width="30px" height="30px" viewBox="0 0 30 30" version="1.1" xmlns="http://www.w3.org/2000/svg" xmlns:xlink="http://www.w3.org/1999/xlink">
    <title>ic_edit_disable</title>
    <g id="效果图" stroke="none" stroke-width="1" fill="none" fill-rule="evenodd" opacity="0.299999982">
        <g id="画板" transform="translate(-194.000000, -56.000000)" fill="#4C545B" fill-rule="nonzero">
            <path d="M202.17175,76.58625 L206.79725,75.775 C206.85225,75.764 206.9045,75.73925 206.943,75.698 L218.60025,64.04075 C218.7075,63.9335 218.7075,63.76025 218.60025,63.653 L214.02975,59.07975 C213.9775,59.0275 213.90875,59 213.8345,59 C213.76025,59 213.6915,59.0275 213.63925,59.07975 L201.982,70.737 C201.94075,70.77825 201.916,70.82775 201.905,70.88275 L201.09375,75.50825 C201.0415,75.8135 201.135,76.1105 201.35225,76.32775 C201.53375,76.50375 201.762,76.6 202.00675,76.6 C202.06175,76.6 202.11675,76.5945 202.17175,76.58625 Z M213.8345,61.8325 L215.85025,63.84825 L205.876,73.81975 L203.43125,74.2515 L203.86025,71.804 L213.8345,61.8325 Z M219.12,78.91 L198.88,78.91 C198.39325,78.91 198,79.30325 198,79.79 L198,80.78 C198,80.901 198.099,81 198.22,81 L219.78,81 C219.901,81 220,80.901 220,80.78 L220,79.79 C220,79.30325 219.60675,78.91 219.12,78.91 Z" id="ic_edit_disable"></path>
        </g>
    </g>
</svg>