<?xml version="1.0" encoding="UTF-8"?>
<svg width="40px" height="40px" viewBox="0 0 40 40" version="1.1" xmlns="http://www.w3.org/2000/svg" xmlns:xlink="http://www.w3.org/1999/xlink">
    <title>ic_hotlink</title>
    <g id="效果图" stroke="none" stroke-width="1" fill="none" fill-rule="evenodd">
        <g id="画板" transform="translate(-48.000000, -50.000000)">
            <g id="ic_hotlink" transform="translate(51.000000, 53.000000)">
                <rect id="矩形" fill="#389FF1" x="0" y="0" width="34" height="34" rx="4"></rect>
                <g id="signal-full备份" transform="translate(5.000000, 7.000000)" fill="#FFFFFF" fill-rule="nonzero">
                    <path d="M12,4.94 C13.0051582,4.94 13.82,5.75484176 13.82,6.76 C13.82,7.47303413 13.4099611,8.09029855 12.8128181,8.38885857 L12.8125101,18.0136372 C15.7419188,18.1127817 18,18.7404655 18,19.5 C18,20.3284271 16.371376,21 12,21 C7.62862396,21 6,20.3284271 6,19.5 C6,18.7404655 8.25808119,18.1127817 11.1874899,18.0136372 L11.1871819,8.38885857 C10.5900389,8.09029855 10.18,7.47303413 10.18,6.76 C10.18,5.75484176 10.9948418,4.94 12,4.94 Z M21.3894531,-1.31450406e-12 C22.6412109,1.828125 23.375,4.03964844 23.375,6.42382812 C23.375,8.71631944 22.6978305,10.8502761 21.5295809,12.6374696 L21.3183594,12.9492187 L19.9828125,12.0275391 C20.3789062,11.4638672 20.7140625,10.8595703 20.9857422,10.2197266 C21.4960938,9.01621094 21.7525391,7.74160156 21.7525391,6.42382812 C21.7525391,5.10605469 21.4935547,3.82890625 20.9857422,2.62792969 C20.7826172,2.14855469 20.5421172,1.68705469 20.2668422,1.24862969 L20.0539062,0.92421875 L21.3894531,-1.31450406e-12 Z M2.61054687,-1.31450406e-12 L3.94863281,0.92421875 C3.58300781,1.45742187 3.27070313,2.02617187 3.01679688,2.62792969 C2.50644531,3.82890625 2.25,5.10605469 2.25,6.42382812 C2.25,7.74160156 2.50644531,9.01621094 3.01425781,10.2171875 C3.23160156,10.7290625 3.48957031,11.2181875 3.78686406,11.6819625 L4.0171875,12.025 L2.68164062,12.9492187 C1.38671875,11.1033203 0.625,8.85117187 0.625,6.42382812 C0.625,4.03964844 1.35878906,1.828125 2.61054687,-1.31450406e-12 Z M5.540625,2.02871094 L6.87617187,2.95292969 C6.62226562,3.30839844 6.40898437,3.69179687 6.23886719,4.09804687 C5.91640625,4.85722656 5.75390625,5.6671875 5.75390625,6.5 C5.75390625,7.3328125 5.91640625,8.14023437 6.23632812,8.90195312 C6.36582031,9.20664062 6.51816406,9.49847412 6.69228821,9.77638245 L6.87363281,10.0496094 L5.53808594,10.9738281 C4.64941406,9.70683594 4.12890625,8.16308594 4.12890625,6.5 C4.12890625,4.83691406 4.64941406,3.29316406 5.540625,2.02871094 Z M18.3578125,2.09726562 C19.2160156,3.3515625 19.71875,4.86738281 19.71875,6.5 C19.71875,8.02377604 19.2808125,9.44580903 18.5246699,10.6484309 L18.3578125,10.9027344 L17.0222656,9.97851562 C17.2533203,9.64082031 17.4488281,9.28027344 17.6087891,8.90195312 C17.93125,8.14023437 18.09375,7.3328125 18.09375,6.5 C18.09375,5.66464844 17.93125,4.85722656 17.6087891,4.09804687 C17.4888184,3.81240234 17.3488525,3.53961182 17.1888916,3.27860413 L17.0222656,3.02148437 L18.3578125,2.09726562 Z M16.0091797,3.72480469 C16.5550781,4.51191406 16.875,5.46914062 16.875,6.5 C16.875,7.43714489 16.6106018,8.31343621 16.1523878,9.05638383 L16.0091797,9.27519531 L14.6736328,8.35097656 C15.046875,7.81015625 15.25,7.1703125 15.25,6.5 C15.25,5.90416667 15.0895062,5.33240741 14.791701,4.83287037 L14.6736328,4.64902344 L16.0091797,3.72480469 Z M7.99082031,3.72480469 L9.32636719,4.64902344 C8.953125,5.18984375 8.75,5.8296875 8.75,6.5 C8.75,7.09583333 8.91049383,7.66759259 9.20829904,8.16712963 L9.32636719,8.35097656 L7.99082031,9.27519531 C7.44492187,8.48808594 7.125,7.53085937 7.125,6.5 C7.125,5.46914062 7.44492187,4.51191406 7.99082031,3.72480469 Z" id="形状结合"></path>
                </g>
            </g>
        </g>
    </g>
</svg>